<?xml version="1.0" encoding="UTF-8" standalone="no"?>
<!-- Created with Inkscape (http://www.inkscape.org/) -->

<svg
   xmlns:dc="http://purl.org/dc/elements/1.1/"
   xmlns:cc="http://creativecommons.org/ns#"
   xmlns:rdf="http://www.w3.org/1999/02/22-rdf-syntax-ns#"
   xmlns:svg="http://www.w3.org/2000/svg"
   xmlns="http://www.w3.org/2000/svg"
   xmlns:xlink="http://www.w3.org/1999/xlink"
   xmlns:sodipodi="http://sodipodi.sourceforge.net/DTD/sodipodi-0.dtd"
   xmlns:inkscape="http://www.inkscape.org/namespaces/inkscape"
   id="svg3436"
   version="1.1"
   inkscape:version="0.91 r13725"
   xml:space="preserve"
   width="710"
   height="2550"
   viewBox="0 0 710 2550"
   sodipodi:docname="base.svg"
   inkscape:export-filename="/home/rlafuente/repos/jpp-mf2-moneytrail/static/base.png"
   inkscape:export-xdpi="90"
   inkscape:export-ydpi="90"><metadata
     id="metadata3442"><rdf:RDF><cc:Work
         rdf:about=""><dc:format>image/svg+xml</dc:format><dc:type
           rdf:resource="http://purl.org/dc/dcmitype/StillImage" /><dc:title /></cc:Work></rdf:RDF></metadata><defs
     id="defs3440"><linearGradient
       inkscape:collect="always"
       id="linearGradient4464"><stop
         style="stop-color:#e1e3a7;stop-opacity:1;"
         offset="0"
         id="stop4466" /><stop
         style="stop-color:#8f9154;stop-opacity:1"
         offset="1"
         id="stop4468" /></linearGradient><clipPath
       clipPathUnits="userSpaceOnUse"
       id="clipPath3502"><path
         d="m 227.969,705.009 297.227,0 0,-152.773 -297.227,0 0,152.773 z"
         id="path3504"
         inkscape:connector-curvature="0" /></clipPath><clipPath
       clipPathUnits="userSpaceOnUse"
       id="clipPath3514"><path
         d="m 227.969,705.009 297.227,0 0,-152.773 -297.227,0 0,152.773 z"
         id="path3516"
         inkscape:connector-curvature="0" /></clipPath><clipPath
       clipPathUnits="userSpaceOnUse"
       id="clipPath3520"><path
         d="m 229.344,704.584 294.75,0 c 0.621,0 1.125,-0.504 1.125,-1.125 l 0,-149.852 c 0,-0.621 -0.504,-1.125 -1.125,-1.125 l -294.75,0 c -0.621,0 -1.125,0.504 -1.125,1.125 l 0,149.852 c 0,0.621 0.504,1.125 1.125,1.125 z"
         id="path3522"
         inkscape:connector-curvature="0" /></clipPath><clipPath
       clipPathUnits="userSpaceOnUse"
       id="clipPath3526"><path
         d="m 138.891,709.982 418.953,0 c 1.363,0 2.472,-1.109 2.472,-2.473 l 0,-154.351 c 0,-1.367 -1.109,-2.477 -2.472,-2.477 l -418.953,0 c -1.364,0 -2.473,1.11 -2.473,2.477 l 0,154.351 c 0,1.364 1.109,2.473 2.473,2.473 z"
         id="path3528"
         inkscape:connector-curvature="0" /></clipPath><clipPath
       clipPathUnits="userSpaceOnUse"
       id="clipPath3538"><path
         d="m 136.395,710.185 424.125,0 0,-159.523 -424.125,0 0,159.523 z"
         id="path3540"
         inkscape:connector-curvature="0" /></clipPath><clipPath
       clipPathUnits="userSpaceOnUse"
       id="clipPath3544"><path
         d="m 138.891,709.982 418.953,0 c 1.363,0 2.472,-1.109 2.472,-2.473 l 0,-154.351 c 0,-1.367 -1.109,-2.477 -2.472,-2.477 l -418.953,0 c -1.364,0 -2.473,1.11 -2.473,2.477 l 0,154.351 c 0,1.364 1.109,2.473 2.473,2.473 z"
         id="path3546"
         inkscape:connector-curvature="0" /></clipPath><clipPath
       clipPathUnits="userSpaceOnUse"
       id="clipPath3554"><path
         d="m 526.996,577.435 31.949,0 0,-25.199 -31.949,0 0,25.199 z"
         id="path3556"
         inkscape:connector-curvature="0" /></clipPath><clipPath
       clipPathUnits="userSpaceOnUse"
       id="clipPath3566"><path
         d="m 526.996,577.435 31.949,0 0,-25.199 -31.949,0 0,25.199 z"
         id="path3568"
         inkscape:connector-curvature="0" /></clipPath><clipPath
       clipPathUnits="userSpaceOnUse"
       id="clipPath3572"><path
         d="m 528.141,577.681 29.25,0 c 0.621,0 1.125,-0.504 1.125,-1.125 l 0,-22.949 c 0,-0.621 -0.504,-1.125 -1.125,-1.125 l -29.25,0 c -0.618,0 -1.125,0.504 -1.125,1.125 l 0,22.949 c 0,0.621 0.507,1.125 1.125,1.125 z"
         id="path3574"
         inkscape:connector-curvature="0" /></clipPath><clipPath
       clipPathUnits="userSpaceOnUse"
       id="clipPath3578"><path
         d="m 138.891,709.982 418.953,0 c 1.363,0 2.472,-1.109 2.472,-2.473 l 0,-154.351 c 0,-1.367 -1.109,-2.477 -2.472,-2.477 l -418.953,0 c -1.364,0 -2.473,1.11 -2.473,2.477 l 0,154.351 c 0,1.364 1.109,2.473 2.473,2.473 z"
         id="path3580"
         inkscape:connector-curvature="0" /></clipPath><clipPath
       clipPathUnits="userSpaceOnUse"
       id="clipPath3590"><path
         d="m 38.047,705.931 90.113,0 0,-13.5 -90.113,0 0,13.5 z"
         id="path3592"
         inkscape:connector-curvature="0" /></clipPath><clipPath
       clipPathUnits="userSpaceOnUse"
       id="clipPath3602"><path
         d="m 33.797,710.185 100.125,0 0,-159.523 -100.125,0 0,159.523 z"
         id="path3604"
         inkscape:connector-curvature="0" /></clipPath><clipPath
       clipPathUnits="userSpaceOnUse"
       id="clipPath3632"><path
         d="m 38.969,577.435 93.375,0 0,-25.199 -93.375,0 0,25.199 z"
         id="path3634"
         inkscape:connector-curvature="0" /></clipPath><clipPath
       clipPathUnits="userSpaceOnUse"
       id="clipPath3644"><path
         d="m 38.969,577.435 93.375,0 0,-25.199 -93.375,0 0,25.199 z"
         id="path3646"
         inkscape:connector-curvature="0" /></clipPath><clipPath
       clipPathUnits="userSpaceOnUse"
       id="clipPath3650"><path
         d="m 40.344,577.681 90.449,0 c 0.621,0 1.125,-0.504 1.125,-1.125 l 0,-22.949 c 0,-0.621 -0.504,-1.125 -1.125,-1.125 l -90.449,0 c -0.621,0 -1.125,0.504 -1.125,1.125 l 0,22.949 c 0,0.621 0.504,1.125 1.125,1.125 z"
         id="path3652"
         inkscape:connector-curvature="0" /></clipPath><clipPath
       clipPathUnits="userSpaceOnUse"
       id="clipPath3656"><path
         d="m 36.293,709.982 94.949,0 c 1.367,0 2.477,-1.109 2.477,-2.473 l 0,-154.351 c 0,-1.367 -1.11,-2.477 -2.477,-2.477 l -94.949,0 c -1.367,0 -2.477,1.11 -2.477,2.477 l 0,154.351 c 0,1.364 1.11,2.473 2.477,2.473 z"
         id="path3658"
         inkscape:connector-curvature="0" /></clipPath><clipPath
       clipPathUnits="userSpaceOnUse"
       id="clipPath3668"><path
         d="m 95.422,763.982 81.609,0 0,-13.5 -81.609,0 0,13.5 z"
         id="path3670"
         inkscape:connector-curvature="0" /></clipPath><clipPath
       clipPathUnits="userSpaceOnUse"
       id="clipPath3680"><path
         d="m 91.172,768.236 90.676,0 0,-55.574 -90.676,0 0,55.574 z"
         id="path3682"
         inkscape:connector-curvature="0" /></clipPath><clipPath
       clipPathUnits="userSpaceOnUse"
       id="clipPath3698"><path
         d="m 38.047,543.931 474.051,0 0,-13.5 -474.051,0 0,13.5 z"
         id="path3700"
         inkscape:connector-curvature="0" /></clipPath><clipPath
       clipPathUnits="userSpaceOnUse"
       id="clipPath3710"><path
         d="m 33.797,548.185 526.727,0 0,-533.113 -526.727,0 0,533.113 z"
         id="path3712"
         inkscape:connector-curvature="0" /></clipPath><clipPath
       clipPathUnits="userSpaceOnUse"
       id="clipPath3722"><path
         d="m 188.574,763.982 83.43,0 0,-13.5 -83.43,0 0,13.5 z"
         id="path3724"
         inkscape:connector-curvature="0" /></clipPath><clipPath
       clipPathUnits="userSpaceOnUse"
       id="clipPath3734"><path
         d="m 184.32,768.236 92.699,0 0,-55.574 -92.699,0 0,55.574 z"
         id="path3736"
         inkscape:connector-curvature="0" /></clipPath><clipPath
       clipPathUnits="userSpaceOnUse"
       id="clipPath3762"><path
         d="m 219.195,763.06 56.25,0 0,-48.824 -56.25,0 0,48.824 z"
         id="path3764"
         inkscape:connector-curvature="0" /></clipPath><clipPath
       clipPathUnits="userSpaceOnUse"
       id="clipPath3774"><path
         d="m 219.195,763.06 56.25,0 0,-48.824 -56.25,0 0,48.824 z"
         id="path3776"
         inkscape:connector-curvature="0" /></clipPath><clipPath
       clipPathUnits="userSpaceOnUse"
       id="clipPath3780"><path
         d="m 220.344,763.084 53.547,0 c 0.621,0 1.125,-0.504 1.125,-1.125 l 0,-46.352 c 0,-0.621 -0.504,-1.125 -1.125,-1.125 l -53.547,0 c -0.621,0 -1.125,0.504 -1.125,1.125 l 0,46.352 c 0,0.621 0.504,1.125 1.125,1.125 z"
         id="path3782"
         inkscape:connector-curvature="0" /></clipPath><clipPath
       clipPathUnits="userSpaceOnUse"
       id="clipPath3786"><path
         d="m 186.594,768.482 87.75,0 c 1.363,0 2.472,-1.109 2.472,-2.473 l 0,-50.851 c 0,-1.367 -1.109,-2.477 -2.472,-2.477 l -87.75,0 c -1.367,0 -2.477,1.11 -2.477,2.477 l 0,50.851 c 0,1.364 1.11,2.473 2.477,2.473 z"
         id="path3788"
         inkscape:connector-curvature="0" /></clipPath><clipPath
       clipPathUnits="userSpaceOnUse"
       id="clipPath3798"><path
         d="m 283.746,763.982 252.922,0 0,-13.5 -252.922,0 0,13.5 z"
         id="path3800"
         inkscape:connector-curvature="0" /></clipPath><clipPath
       clipPathUnits="userSpaceOnUse"
       id="clipPath3810"><path
         d="m 279.496,768.236 281.023,0 0,-55.574 -281.023,0 0,55.574 z"
         id="path3812"
         inkscape:connector-curvature="0" /></clipPath><clipPath
       clipPathUnits="userSpaceOnUse"
       id="clipPath3834"><path
         d="m 33.797,768.236 54.898,0 0,-55.574 -54.898,0 0,55.574 z"
         id="path3836"
         inkscape:connector-curvature="0" /></clipPath><linearGradient
       inkscape:collect="always"
       xlink:href="#linearGradient4464"
       id="linearGradient4470"
       x1="298.76312"
       y1="274.33121"
       x2="298.76312"
       y2="-1186.4229"
       gradientUnits="userSpaceOnUse" /></defs><sodipodi:namedview
     pagecolor="#ffffff"
     bordercolor="#666666"
     borderopacity="1"
     objecttolerance="10"
     gridtolerance="10"
     guidetolerance="10"
     inkscape:pageopacity="0"
     inkscape:pageshadow="2"
     inkscape:window-width="1438"
     inkscape:window-height="879"
     id="namedview3438"
     showgrid="false"
     inkscape:zoom="1.8598613"
     inkscape:cx="368.54717"
     inkscape:cy="2363.3118"
     inkscape:window-x="0"
     inkscape:window-y="19"
     inkscape:window-maximized="1"
     inkscape:current-layer="g4655"
     showguides="false"
     inkscape:guide-bbox="true"
     inkscape:object-nodes="true"
     inkscape:snap-global="true"
     inkscape:snap-page="true"><sodipodi:guide
       position="230.4,960.295"
       orientation="0,1"
       id="guide4355" /><sodipodi:guide
       position="230.4,890.8275"
       orientation="0,1"
       id="guide4357" /><sodipodi:guide
       position="42.24625,887.73125"
       orientation="0,1"
       id="guide4359" /><sodipodi:guide
       position="42.24625,688.3275"
       orientation="0,1"
       id="guide4361" /><sodipodi:guide
       position="42.344027,685.10829"
       orientation="0,1"
       id="guide4363" /><sodipodi:guide
       position="42.24625,688.3275"
       orientation="1,0"
       id="guide4365" /><sodipodi:guide
       position="700.65,887.73125"
       orientation="1,0"
       id="guide4367" /><sodipodi:guide
       position="111.01644,929.19237"
       orientation="1,0"
       id="guide3609" /><sodipodi:guide
       position="170.44281,853.82709"
       orientation="1,0"
       id="guide3629" /></sodipodi:namedview><g
     id="g3444"
     inkscape:groupmode="layer"
     inkscape:label="export"
     transform="matrix(1.25,0,0,-1.25,0,2550)"><g
       id="g4655"
       transform="translate(-13.134302,1251.5522)"><rect
         transform="scale(1,-1)"
         y="-788.44781"
         x="13.134302"
         height="2040"
         width="568"
         id="rect4723"
         style="color:#000000;clip-rule:nonzero;display:inline;overflow:visible;visibility:visible;opacity:1;isolation:auto;mix-blend-mode:normal;color-interpolation:sRGB;color-interpolation-filters:linearRGB;solid-color:#000000;solid-opacity:1;fill:#ffffff;fill-opacity:1;fill-rule:nonzero;stroke:none;stroke-width:1.25;stroke-linecap:butt;stroke-linejoin:miter;stroke-miterlimit:4;stroke-dasharray:none;stroke-dashoffset:0;stroke-opacity:1;marker:none;color-rendering:auto;image-rendering:auto;shape-rendering:auto;text-rendering:auto;enable-background:accumulate" /><path
         style="fill:url(#linearGradient4470);fill-opacity:1"
         d="m 36.274118,547.85851 521.769452,0.22851 c 1.367,6e-4 2.477,-1.33751 2.477,-2.70151 l 0,-1774.25291 c 0,-1.367 -1.11,-2.477 -2.477,-2.477 l -521.769452,0 c -1.367,0 -2.477,1.11 -2.477,2.477 l 0,1774.25291 c 0,1.364 1.11,2.4724 2.477,2.473 z"
         id="path3633"
         inkscape:connector-curvature="0"
         sodipodi:nodetypes="sssssssss" /><path
         inkscape:connector-curvature="0"
         id="path3611"
         d="m 286.88499,768.24005 271.13607,0 c 1.363,0 2.472,-1.109 2.472,-2.473 l 0,-50.60905 c 0,-1.367 -1.109,-2.477 -2.472,-2.477 l -271.13607,0 c -1.367,0 -2.477,1.11 -2.477,2.477 l 0,50.60905 c 0,1.364 1.11,2.473 2.477,2.473 z"
         style="fill:#a2dcd5;fill-opacity:1;stroke:none"
         sodipodi:nodetypes="sssssssss" /><path
         style="fill:#e28956;fill-opacity:1"
         sodipodi:nodetypes="sssssssss"
         inkscape:connector-curvature="0"
         id="path3631"
         d="m 138.88129,709.95649 419.16103,0.22851 c 1.367,7.5e-4 2.477,-1.33751 2.477,-2.70151 l 0,-154.351 c 0,-1.367 -1.11,-2.477 -2.477,-2.477 l -419.16103,0 c -1.367,0 -2.477,1.11 -2.477,2.477 l 0,154.351 c 0,1.364 1.11,2.47225 2.477,2.473 z" /><path
         sodipodi:nodetypes="sssssssss"
         inkscape:connector-curvature="0"
         id="path3605"
         d="m 98.322685,768.24005 85.807835,0 c 1.363,0 2.472,-1.109 2.472,-2.473 l 0,-50.60905 c 0,-1.367 -1.109,-2.477 -2.472,-2.477 l -85.807835,0 c -1.367,0 -2.477,1.11 -2.477,2.477 l 0,50.60905 c 0,1.364 1.11,2.473 2.477,2.473 z"
         style="fill:#edd084;fill-opacity:1;stroke:none" /><path
         style="fill:#a2dcd5;fill-opacity:1;stroke:none"
         d="m 36.225034,768.236 54.907678,0 c 1.363,0 2.472,-1.109 2.472,-2.473 l 0,-50.851 c 0,-1.367 -1.109,-2.477 -2.472,-2.477 l -54.907678,0 c -1.367,0 -2.477,1.11 -2.477,2.477 l 0,50.851 c 0,1.364 1.11,2.473 2.477,2.473 z"
         id="path3607"
         inkscape:connector-curvature="0"
         sodipodi:nodetypes="sssssssss" /><path
         sodipodi:nodetypes="sssssssss"
         style="fill:#a2dcd5;fill-opacity:1;stroke:none"
         d="m 191.394,768.24005 87.75,0 c 1.363,0 2.472,-1.109 2.472,-2.473 l 0,-50.60905 c 0,-1.367 -1.109,-2.477 -2.472,-2.477 l -87.75,0 c -1.367,0 -2.477,1.11 -2.477,2.477 l 0,50.60905 c 0,1.364 1.11,2.473 2.477,2.473 z"
         id="path3754"
         inkscape:connector-curvature="0" /><text
         sodipodi:linespacing="125%"
         y="-697.88245"
         x="139.04749"
         id="text3480"
         style="font-style:normal;font-variant:normal;font-weight:bold;font-stretch:normal;font-size:11px;line-height:125%;font-family:'Roboto Condensed';-inkscape-font-specification:'Roboto Condensed, Bold';text-align:start;writing-mode:lr-tb;text-anchor:start;fill:#000000;fill-opacity:1;fill-rule:nonzero;stroke:none"
         transform="scale(1,-1)"><tspan
           id="tspan3482"
           sodipodi:role="line"
           y="-697.88245"
           x="139.04749">955 милионa €</tspan></text>
<text
         sodipodi:linespacing="100%"
         y="-685.39496"
         x="139.04749"
         id="text3492"
         style="font-style:normal;font-variant:normal;font-weight:normal;font-stretch:normal;font-size:9px;line-height:100%;font-family:'Roboto Condensed';-inkscape-font-specification:'Roboto Condensed, Normal';text-align:start;writing-mode:lr-tb;text-anchor:start;fill:#000000;fill-opacity:1;fill-rule:nonzero;stroke:none"
         transform="scale(1,-1)"><tspan
           id="tspan3494"
           sodipodi:role="line"
           y="-685.39496"
           x="139.04749">Координация на ниво ЕС</tspan></text>
<g
         transform="translate(33.335819,0)"
         id="g4648"><path
           style="fill:#000000;fill-opacity:0.17582421;fill-rule:nonzero;stroke:none"
           d="m 522.47,706.609 -294.976,0 c -0.621,0 -1.125,-0.504 -1.125,-1.125 l 0,-150.523 c 0,-0.621 0.504,-1.125 1.125,-1.125 l 294.976,0 c 0.621,0 1.125,0.504 1.125,1.125 l 0,150.523 c 0,0.621 -0.504,1.125 -1.125,1.125 z"
           id="path3496"
           inkscape:connector-curvature="0" /><text
           transform="scale(1,-1)"
           style="font-style:normal;font-variant:normal;font-weight:bold;font-stretch:normal;font-size:9px;line-height:125%;font-family:'Roboto Condensed';-inkscape-font-specification:'Roboto Condensed, Bold';text-align:start;writing-mode:lr-tb;text-anchor:start;fill:#ffffff;fill-opacity:1;fill-rule:nonzero;stroke:none"
           id="text3506"
           x="229.59"
           y="-567.43872"
           sodipodi:linespacing="125%"><tspan
             x="229.59"
             y="-567.43872"
             sodipodi:role="line"
             id="tspan3508">670 милионa €</tspan></text>
<text
           transform="scale(1,-1)"
           style="font-style:normal;font-variant:normal;font-weight:normal;font-stretch:normal;font-size:9px;line-height:125%;font-family:'Roboto Condensed';-inkscape-font-specification:'Roboto Condensed, Normal';text-align:start;writing-mode:lr-tb;text-anchor:start;fill:#ffffff;fill-opacity:1;fill-rule:nonzero;stroke:none"
           id="text3530"
           x="229.59"
           y="-558.20245"
           sodipodi:linespacing="125%"><tspan
             x="229.59"
             y="-558.20245"
             sodipodi:role="line"
             id="tspan3532">ФРОНТЕКС</tspan></text>
</g><g
         transform="translate(-310.54187,0)"
         id="g4641"><path
           sodipodi:nodetypes="sssssssss"
           style="color:#000000;clip-rule:nonzero;display:inline;overflow:visible;visibility:visible;opacity:1;isolation:auto;mix-blend-mode:normal;color-interpolation:sRGB;color-interpolation-filters:linearRGB;solid-color:#000000;solid-opacity:1;fill:#000000;fill-opacity:0.17582421;fill-rule:nonzero;stroke:none;stroke-width:1;stroke-linecap:butt;stroke-linejoin:miter;stroke-miterlimit:4;stroke-dasharray:none;stroke-dashoffset:0;stroke-opacity:1;color-rendering:auto;image-rendering:auto;shape-rendering:auto;text-rendering:auto;enable-background:accumulate"
           d="m 565.82,575.835 -45.699,0 c -0.621,0 -1.125,-0.504 -1.125,-1.125 l 0,-19.749 c 0,-0.621 0.504,-1.125 1.125,-1.125 l 45.699,0 c 0.621,0 1.125,0.504 1.125,1.125 l 0,19.749 c 0,0.621 -0.504,1.125 -1.125,1.125 z"
           id="path3548"
           inkscape:connector-curvature="0" /><text
           transform="scale(1,-1)"
           style="font-style:normal;font-variant:normal;font-weight:bold;font-stretch:normal;font-size:9px;line-height:125%;font-family:'Roboto Condensed';-inkscape-font-specification:'Roboto Condensed, Bold';text-align:start;writing-mode:lr-tb;text-anchor:start;fill:#ffffff;fill-opacity:1;fill-rule:nonzero;stroke:none"
           id="text3558"
           x="521.35486"
           y="-565.83875"
           sodipodi:linespacing="125%"><tspan
             x="521.35486"
             y="-565.83875"
             sodipodi:role="line"
             id="tspan3560">8 милионa €</tspan></text>
<text
           transform="scale(1,-1)"
           style="font-style:normal;font-variant:normal;font-weight:normal;font-stretch:normal;font-size:9px;line-height:125%;font-family:'Roboto Condensed';-inkscape-font-specification:'Roboto Condensed, Normal';text-align:start;writing-mode:lr-tb;text-anchor:start;fill:#ffffff;fill-opacity:1;fill-rule:nonzero;stroke:none"
           id="text3582"
           x="521.35486"
           y="-556.60248"
           sodipodi:linespacing="125%"><tspan
             x="521.35486"
             y="-556.60248"
             sodipodi:role="line"
             id="tspan3584">EВРОДАК</tspan></text>
</g><path
         style="fill:#c19a64;fill-opacity:1"
         sodipodi:nodetypes="sssssssss"
         d="m 36.293,710.18363 94.949,0 c 1.367,0 2.477,-1.109 2.477,-2.473 l 0,-154.55263 c 0,-1.367 -1.11,-2.477 -2.477,-2.477 l -94.949,0 c -1.367,0 -2.477,1.11 -2.477,2.477 l 0,154.55263 c 0,1.364 1.11,2.473 2.477,2.473 z"
         id="path3624"
         inkscape:connector-curvature="0" /><path
         inkscape:connector-curvature="0"
         id="path3626"
         d="m 129.18886,579.035 -91.125,0 c -0.621,0 -1.125,-0.504 -1.125,-1.125 l 0,-22.949 c 0,-0.621 0.504,-1.125 1.125,-1.125 l 91.125,0 c 0.621,0 1.125,0.504 1.125,1.125 l 0,22.949 c 0,0.621 -0.504,1.125 -1.125,1.125 z"
         style="fill:#000000;fill-opacity:0.17582421;fill-rule:nonzero;stroke:none" /><text
         y="-755.93243"
         x="98.62249"
         id="text3672"
         style="font-style:normal;font-variant:normal;font-weight:bold;font-stretch:normal;font-size:11px;font-family:'Roboto Condensed';-inkscape-font-specification:'Roboto Condensed, Bold';writing-mode:lr-tb;fill:#000000;fill-opacity:1;fill-rule:nonzero;stroke:none"
         transform="scale(1,-1)"><tspan
           id="tspan3674"
           sodipodi:role="line"
           y="-755.93243"
           x="98.62249">75 милионa €</tspan></text>
<text
         sodipodi:linespacing="100%"
         y="-743.44495"
         x="93.822495"
         id="text3684"
         style="font-style:normal;font-variant:normal;font-weight:normal;font-stretch:normal;font-size:9px;line-height:100%;font-family:'Roboto Condensed';-inkscape-font-specification:'Roboto Condensed, Normal';text-align:start;writing-mode:lr-tb;text-anchor:start;fill:#000000;fill-opacity:1;fill-rule:nonzero;stroke:none"
         transform="scale(1,-1)"><tspan
           id="tspan3692"
           sodipodi:role="line"
           y="-743.44495"
           x="93.822495" /></text>
<text
         sodipodi:linespacing="125%"
         y="-535.88245"
         x="36.447502"
         id="text3702"
         style="font-style:normal;font-variant:normal;font-weight:bold;font-stretch:normal;font-size:11px;line-height:125%;font-family:'Roboto Condensed';-inkscape-font-specification:'Roboto Condensed, Bold';text-align:start;writing-mode:lr-tb;text-anchor:start;fill:#000000;fill-opacity:1;fill-rule:nonzero;stroke:none"
         transform="scale(1,-1)"><tspan
           id="tspan3704"
           sodipodi:role="line"
           y="-535.88245"
           x="36.447502">11.3 billion €</tspan></text>
<text
         sodipodi:linespacing="100%"
         y="-523.39496"
         x="36.447502"
         id="text3714"
         style="font-style:normal;font-variant:normal;font-weight:normal;font-stretch:normal;font-size:9px;line-height:100%;font-family:'Roboto Condensed';-inkscape-font-specification:'Roboto Condensed, Normal';text-align:start;writing-mode:lr-tb;text-anchor:start;fill:#000000;fill-opacity:1;fill-rule:nonzero;stroke:none"
         transform="scale(1,-1)"><tspan
           id="tspan3716"
           sodipodi:role="line"
           y="-523.39496"
           x="36.447502">Депортации</tspan></text>
<text
         y="-755.93243"
         x="191.77251"
         id="text3726"
         style="font-style:normal;font-variant:normal;font-weight:bold;font-stretch:normal;font-size:11px;font-family:'Roboto Condensed';-inkscape-font-specification:'Roboto Condensed, Bold';writing-mode:lr-tb;fill:#000000;fill-opacity:1;fill-rule:nonzero;stroke:none"
         transform="scale(1,-1)"><tspan
           id="tspan3728"
           sodipodi:role="line"
           y="-755.93243"
           x="191.77251">77 милионa €</tspan></text>
<text
         sodipodi:linespacing="100%"
         y="-743.44495"
         x="191.77251"
         id="text3738"
         style="font-style:normal;font-variant:normal;font-weight:normal;font-stretch:normal;font-size:9px;line-height:100%;font-family:'Roboto Condensed';-inkscape-font-specification:'Roboto Condensed, Normal';text-align:start;writing-mode:lr-tb;text-anchor:start;fill:#000000;fill-opacity:1;fill-rule:nonzero;stroke:none"
         transform="scale(1,-1)"><tspan
           id="tspan3740"
           sodipodi:role="line"
           y="-743.44495"
           x="191.77251">Гранични огради и стени</tspan></text>
<path
         style="fill:#000000;fill-opacity:0.17582421;fill-rule:nonzero;stroke:none"
         d="m 278.43246,740.32763 -81.89662,0 c -0.621,0 -1.125,-0.504 -1.125,-1.125 l 0,-23.61033 c 0,-0.621 0.504,-1.125 1.125,-1.125 l 81.89662,0 c 0.621,0 1.125,0.504 1.125,1.125 l 0,23.61033 c 0,0.621 -0.504,1.125 -1.125,1.125 z"
         id="path3756"
         inkscape:connector-curvature="0"
         sodipodi:nodetypes="sssssssss" /><text
         sodipodi:linespacing="125%"
         y="-725.55756"
         x="277.98633"
         id="text3766"
         style="font-style:normal;font-variant:normal;font-weight:bold;font-stretch:normal;font-size:9px;line-height:125%;font-family:'Roboto Condensed';-inkscape-font-specification:'Roboto Condensed, Bold';text-align:end;writing-mode:lr-tb;text-anchor:end;fill:#ffffff;fill-opacity:1;fill-rule:nonzero;stroke:none"
         transform="scale(1,-1)"><tspan
           id="tspan3768"
           sodipodi:role="line"
           y="-725.55756"
           x="277.98633">47 милионa €</tspan></text>
<text
         sodipodi:linespacing="125%"
         y="-716.32135"
         x="277.94421"
         id="text3790"
         style="font-style:normal;font-variant:normal;font-weight:normal;font-stretch:normal;font-size:9px;line-height:125%;font-family:'Roboto Condensed';-inkscape-font-specification:'Roboto Condensed, Normal';text-align:end;writing-mode:lr-tb;text-anchor:end;fill:#ffffff;fill-opacity:1;fill-rule:nonzero;stroke:none"
         transform="scale(1,-1)"><tspan
           id="tspan3792"
           sodipodi:role="line"
           y="-716.32135"
           x="277.94421">Изграждане на стена в Мелила</tspan></text>
<text
         y="-755.93243"
         x="286.94751"
         id="text3802"
         style="font-style:normal;font-variant:normal;font-weight:bold;font-stretch:normal;font-size:11px;font-family:'Roboto Condensed';-inkscape-font-specification:'Roboto Condensed, Bold';writing-mode:lr-tb;fill:#000000;fill-opacity:1;fill-rule:nonzero;stroke:none"
         transform="scale(1,-1)"><tspan
           id="tspan3804"
           sodipodi:role="line"
           y="-755.93243"
           x="286.94751">226 милионa €</tspan></text>
<text
         sodipodi:linespacing="100%"
         y="-743.44495"
         x="286.94751"
         id="text3814"
         style="font-style:normal;font-variant:normal;font-weight:normal;font-stretch:normal;font-size:9px;line-height:100%;font-family:'Roboto Condensed';-inkscape-font-specification:'Roboto Condensed, Normal';text-align:start;writing-mode:lr-tb;text-anchor:start;fill:#000000;fill-opacity:1;fill-rule:nonzero;stroke:none"
         transform="scale(1,-1)"><tspan
           id="tspan3816"
           sodipodi:role="line"
           y="-743.44495"
           x="286.94751">Оборудване за охрана на границите</tspan></text>
<text
         y="-755.93243"
         x="36.447502"
         id="text3826"
         style="font-style:normal;font-variant:normal;font-weight:bold;font-stretch:normal;font-size:11px;font-family:'Roboto Condensed';-inkscape-font-specification:'Roboto Condensed, Bold';letter-spacing:-0.40000001px;writing-mode:lr-tb;fill:#000000;fill-opacity:1;fill-rule:nonzero;stroke:none"
         transform="scale(1,-1)"><tspan
           id="tspan3828"
           sodipodi:role="line"
           y="-755.93243"
           x="36.447502">46 милионa €</tspan></text>
<text
         sodipodi:linespacing="100%"
         y="-743.44495"
         x="36.447502"
         id="text3842"
         style="font-style:normal;font-variant:normal;font-weight:normal;font-stretch:normal;font-size:9px;line-height:100%;font-family:'Roboto Condensed';-inkscape-font-specification:'Roboto Condensed, Normal';text-align:start;writing-mode:lr-tb;text-anchor:start;fill:#000000;fill-opacity:1;fill-rule:nonzero;stroke:none"
         transform="scale(1,-1)"><tspan
           id="tspan3850"
           sodipodi:role="line"
           y="-743.44495"
           x="36.447502" /></text>
<text
         sodipodi:linespacing="125%"
         y="-697.88245"
         x="36.447502"
         id="text3594"
         style="font-style:normal;font-variant:normal;font-weight:bold;font-stretch:normal;font-size:11px;line-height:125%;font-family:'Roboto Condensed';-inkscape-font-specification:'Roboto Condensed, Bold';text-align:start;writing-mode:lr-tb;text-anchor:start;fill:#000000;fill-opacity:1;fill-rule:nonzero;stroke:none"
         transform="scale(1,-1)"><tspan
           id="tspan3596"
           sodipodi:role="line"
           y="-697.88245"
           x="36.447502">230 милионa €</tspan></text>
<text
         sodipodi:linespacing="100%"
         y="-685.39496"
         x="36.447502"
         id="text3606"
         style="font-style:normal;font-variant:normal;font-weight:normal;font-stretch:normal;font-size:9px;line-height:100%;font-family:'Roboto Condensed';-inkscape-font-specification:'Roboto Condensed, Normal';text-align:start;writing-mode:lr-tb;text-anchor:start;fill:#000000;fill-opacity:1;fill-rule:nonzero;stroke:none"
         transform="scale(1,-1)"><tspan
           id="tspan3610"
           sodipodi:role="line"
           y="-685.39496"
           x="36.447502" /></text>
<text
         sodipodi:linespacing="125%"
         y="-569.86884"
         x="38.55986"
         id="text3636"
         style="font-style:normal;font-variant:normal;font-weight:bold;font-stretch:normal;font-size:9px;line-height:125%;font-family:'Roboto Condensed';-inkscape-font-specification:'Roboto Condensed, Bold';text-align:start;writing-mode:lr-tb;text-anchor:start;fill:#ffffff;fill-opacity:1;fill-rule:nonzero;stroke:none"
         transform="scale(1,-1)"><tspan
           dx="0 -1.0645412"
           id="tspan3638"
           sodipodi:role="line"
           y="-569.86884"
           x="38.55986">16 милионa €</tspan></text>
<flowRoot
         xml:space="preserve"
         id="flowRoot4733"
         style="fill:black;stroke:none;stroke-opacity:1;stroke-width:1px;stroke-linejoin:miter;stroke-linecap:butt;fill-opacity:1;font-family:Lato;font-style:normal;font-weight:normal;font-size:4px;line-height:125%;letter-spacing:0px;word-spacing:0px;-inkscape-font-specification:Lato;font-stretch:normal;font-variant:normal"><flowRegion
           id="flowRegion4735"><rect
             id="rect4737"
             width="273.73917"
             height="11.405798"
             x="86.684067"
             y="-52.803188" /></flowRegion><flowPara
           id="flowPara4739" /></flowRoot><flowRoot
         xml:space="preserve"
         id="flowRoot4741"
         style="font-style:normal;font-variant:normal;font-weight:normal;font-stretch:normal;font-size:11.25px;line-height:94.99999881%;font-family:'Roboto Condensed';-inkscape-font-specification:'Roboto Condensed, Normal';text-align:start;letter-spacing:0px;word-spacing:0px;writing-mode:lr-tb;text-anchor:start;fill:#000000;fill-opacity:1;stroke:none;stroke-width:1px;stroke-linecap:butt;stroke-linejoin:miter;stroke-opacity:1"
         transform="matrix(0.8,0,0,-0.8,17.934302,785.00671)"><flowRegion
           id="flowRegion4743"><rect
             id="rect4745"
             width="106.45955"
             height="48.121868"
             x="100.54513"
             y="42.823845"
             style="font-style:normal;font-variant:normal;font-weight:normal;font-stretch:normal;font-size:11.25px;line-height:94.99999881%;font-family:'Roboto Condensed';-inkscape-font-specification:'Roboto Condensed, Normal';text-align:start;writing-mode:lr-tb;text-anchor:start" /></flowRegion><flowPara
           id="flowPara4747">Техническа помощ за съседни страни с диктаторски режими</flowPara></flowRoot><flowRoot
         style="font-style:normal;font-variant:normal;font-weight:normal;font-stretch:normal;font-size:11.25px;line-height:94.99999881%;font-family:'Roboto Condensed';-inkscape-font-specification:'Roboto Condensed, Normal';text-align:start;letter-spacing:0px;word-spacing:0px;writing-mode:lr-tb;text-anchor:start;fill:#000000;fill-opacity:1;stroke:none;stroke-width:1px;stroke-linecap:butt;stroke-linejoin:miter;stroke-opacity:1"
         id="flowRoot4758"
         xml:space="preserve"
         transform="matrix(0.8,0,0,-0.8,-44.289334,785.00671)"><flowRegion
           id="flowRegion4760"><rect
             style="font-style:normal;font-variant:normal;font-weight:normal;font-stretch:normal;font-size:11.25px;line-height:94.99999881%;font-family:'Roboto Condensed';-inkscape-font-specification:'Roboto Condensed, Normal';text-align:start;writing-mode:lr-tb;text-anchor:start"
             y="42.823845"
             x="100.54513"
             height="44.895817"
             width="63.176746"
             id="rect4762" /></flowRegion><flowPara
           id="flowPara4770">Центрове за задържане в трети страни</flowPara></flowRoot><flowRoot
         transform="matrix(0.8,0,0,-0.8,-44.289334,726.60902)"
         xml:space="preserve"
         id="flowRoot3518"
         style="font-style:normal;font-variant:normal;font-weight:normal;font-stretch:normal;font-size:11.25px;line-height:94.99999881%;font-family:'Roboto Condensed';-inkscape-font-specification:'Roboto Condensed, Normal';text-align:start;letter-spacing:0px;word-spacing:0px;writing-mode:lr-tb;text-anchor:start;fill:#000000;fill-opacity:1;stroke:none;stroke-width:1px;stroke-linecap:butt;stroke-linejoin:miter;stroke-opacity:1"><flowRegion
           id="flowRegion3520"><rect
             id="rect3522"
             width="116.02361"
             height="44.895821"
             x="100.54513"
             y="42.823845"
             style="font-style:normal;font-variant:normal;font-weight:normal;font-stretch:normal;font-size:11.25px;line-height:94.99999881%;font-family:'Roboto Condensed';-inkscape-font-specification:'Roboto Condensed, Normal';text-align:start;writing-mode:lr-tb;text-anchor:start" /></flowRegion><flowPara
           id="flowPara3549">Научно-изследователски програми</flowPara></flowRoot><flowRoot
         style="font-style:normal;font-variant:normal;font-weight:normal;font-stretch:normal;font-size:11.25px;line-height:87.00000048%;font-family:'Roboto Condensed';-inkscape-font-specification:'Roboto Condensed, Normal';text-align:start;letter-spacing:-0.2px;word-spacing:0px;writing-mode:lr-tb;text-anchor:start;fill:#000000;fill-opacity:1;stroke:none;stroke-width:1px;stroke-linecap:butt;stroke-linejoin:miter;stroke-opacity:1"
         id="flowRoot3553"
         xml:space="preserve"
         transform="matrix(0.8,0,0,-0.8,-41.750914,601.77402)"><flowRegion
           id="flowRegion3555"><rect
             style="font-style:normal;font-variant:normal;font-weight:normal;font-stretch:normal;font-size:11.25px;line-height:87.00000048%;font-family:'Roboto Condensed';-inkscape-font-specification:'Roboto Condensed, Normal';text-align:start;letter-spacing:-0.2px;writing-mode:lr-tb;text-anchor:start"
             y="42.823845"
             x="100.54513"
             height="16.399073"
             width="111.45338"
             id="rect3557" /></flowRegion><flowPara
           id="flowPara3561"
           style="font-size:8.75px;line-height:87.00000048%;letter-spacing:-0.2px;fill:#ffffff">Изследвания за разработка на изкуствени обонятелни органи, идентифициращи бежанци и мигранти</flowPara><flowPara
           id="flowPara3565"
           style="font-size:8.75px;line-height:87.00000048%;letter-spacing:-0.2px;fill:#ffffff" /></flowRoot></g></g></svg>